<?xml version="1.0" encoding="UTF-8"?>
<svg id="Layer_2" data-name="Layer 2" xmlns="http://www.w3.org/2000/svg" viewBox="0 0 336.01 108.1">
  <defs>
    <style>
      .cls-1 {
        fill: #117865;
      }

      .cls-1, .cls-2 {
        stroke-width: 0px;
      }

      .cls-2 {
        fill: #002c4c;
      }
    </style>
  </defs>
  <g id="Layer_1-2" data-name="Layer 1">
    <g>
      <path class="cls-2" d="M75.61,39.63c3.77,0,6.84-3.07,6.84-6.84s-3.07-6.84-6.84-6.84-6.84,3.07-6.84,6.84,3.07,6.84,6.84,6.84ZM54.04,92.78v7.66c5.41,0,10.67-.93,15.61-2.71l-2.62-7.2c-4.11,1.48-8.49,2.25-12.99,2.25ZM107.96,56.71h-23.53c-.69,8.99-5.27,16.89-12.07,22.02-.09.07-.18.13-.28.2-.42.31-.84.6-1.27.89-.09.06-.18.12-.27.18-.5.32-1,.63-1.52.92-.1.06-.2.11-.3.17-.48.26-.96.52-1.46.75-.9.44-1.83.83-2.78,1.18l2.65,7.28c4.11-1.5,7.94-3.7,11.36-6.56.04.04.08.08.12.13h0l4.92,5.86h0s.06.07.08.1c0,.01.01.03.02.04-4.13,3.46-8.78,6.13-13.76,7.95l2.65,7.27c.6-.22,1.2-.46,1.79-.7h0c.05-.02.09-.04.14-.06.32-.13.64-.27.96-.41.34-.15.69-.3,1.02-.45.32-.15.63-.29.95-.45.34-.16.68-.33,1.02-.5.3-.15.6-.3.89-.46.37-.2.74-.4,1.11-.61.25-.14.51-.28.76-.43.59-.35,1.18-.7,1.76-1.07.19-.12.37-.25.56-.37.41-.27.83-.54,1.24-.83.23-.16.45-.32.67-.48.37-.26.73-.53,1.09-.8.22-.17.44-.34.67-.51.36-.28.73-.57,1.08-.87.13-.11.27-.21.41-.33h0c11.29-9.44,18.66-23.39,19.33-39.09v.04Z"/>
      <path class="cls-2" d="M131.64,31.39h8.24c.19,0,.36.13.41.31l3.04,10.95c.12.41.26.94.41,1.6.16.66.32,1.3.49,1.92.19.74.38,1.52.58,2.34h.07c.17-.81.35-1.59.54-2.34.14-.62.3-1.26.47-1.92.17-.66.31-1.19.43-1.6l3.08-10.95c.05-.18.22-.31.41-.31h8.31v25.72h-5.83v-14.19c0-.56,0-1.13.04-1.71.02-.67.05-1.4.07-2.19h-.07c-.19.74-.36,1.43-.5,2.05-.12.55-.25,1.09-.38,1.6-.13.52-.23.89-.31,1.13l-3.62,13c-.05.19-.22.31-.41.31h-4.6c-.19,0-.36-.13-.41-.31l-3.58-12.96c-.07-.24-.18-.62-.32-1.15-.14-.53-.28-1.07-.4-1.62-.14-.62-.3-1.31-.47-2.05h-.07c0,.79,0,1.52.04,2.19.02.58.04,1.15.05,1.73,0,.58.02,1,.02,1.26v12.92h-5.72v-25.72h0Z"/>
      <path class="cls-2" d="M161.35,40.55h5.94v16.56h-6.37v-16.13c0-.24.19-.43.43-.43Z"/>
      <path class="cls-2" d="M182.39,57.69c-1.89,0-3.62-.34-5.18-1.01-1.56-.67-2.9-1.6-4.01-2.79-1.12-1.19-1.98-2.6-2.59-4.23-.61-1.63-.92-3.41-.92-5.32s.3-3.7.9-5.34c.6-1.64,1.45-3.06,2.55-4.26s2.43-2.14,3.99-2.82c1.56-.68,3.3-1.03,5.22-1.03,1.51,0,2.88.2,4.12.61,1.23.41,2.31.96,3.22,1.65,1.13.84,2.01,1.87,2.64,3.09.64,1.22,1.04,2.55,1.21,3.99h-6.37c-.17-1.15-.68-2.12-1.53-2.9-.85-.78-1.96-1.17-3.33-1.17-1.06,0-1.97.2-2.73.61-.77.41-1.4.98-1.91,1.71-.5.73-.88,1.6-1.13,2.59-.25,1-.38,2.08-.38,3.26s.14,2.26.43,3.26.7,1.85,1.24,2.57c.54.72,1.19,1.28,1.94,1.69.76.41,1.61.61,2.57.61,1.44,0,2.6-.4,3.47-1.21.88-.8,1.39-1.83,1.53-3.08h6.37c-.1,1.3-.41,2.51-.95,3.63-.54,1.13-1.25,2.11-2.14,2.95-1.01.96-2.18,1.69-3.51,2.18s-2.91.74-4.73.74v.02Z"/>
      <path class="cls-2" d="M195.53,31.82c0-.24.19-.43.43-.43h11.88c1.27,0,2.46.16,3.56.49,1.1.32,2.06.8,2.86,1.42s1.43,1.4,1.89,2.32.68,1.98.68,3.18c0,1.51-.37,2.79-1.1,3.85-.73,1.06-1.85,1.85-3.36,2.37v.11c1.13.38,1.98.94,2.57,1.67.59.73.98,1.74,1.17,3.04.14.84.23,1.66.27,2.46.04.8.08,1.52.13,2.16.05.64.12,1.16.22,1.58s.25.67.47.74v.32h-6.19c-.17-.1-.29-.34-.38-.74-.08-.4-.16-.88-.22-1.44-.06-.56-.11-1.17-.16-1.83s-.12-1.31-.22-1.96c-.17-1.2-.58-2.11-1.24-2.73s-1.67-.94-3.04-.94h-3.85v9.64h-6.37v-25.29h0ZM206.68,42.76c1.27,0,2.22-.28,2.86-.83s.95-1.32.95-2.3-.31-1.7-.92-2.3-1.53-.9-2.75-.9h-4.93v6.33h4.79Z"/>
      <path class="cls-2" d="M230.46,57.72c-1.94,0-3.7-.34-5.27-1.01-1.57-.67-2.9-1.61-3.99-2.81-1.09-1.2-1.94-2.62-2.54-4.26-.6-1.64-.9-3.42-.9-5.34s.3-3.7.9-5.34c.6-1.64,1.44-3.06,2.54-4.26,1.09-1.2,2.42-2.13,3.99-2.81,1.57-.67,3.33-1.01,5.27-1.01s3.7.34,5.27,1.01c1.57.67,2.91,1.61,4.01,2.81s1.95,2.62,2.55,4.26c.6,1.64.9,3.42.9,5.34s-.3,3.7-.9,5.34-1.45,3.06-2.55,4.26c-1.1,1.2-2.44,2.13-4.01,2.81-1.57.67-3.33,1.01-5.27,1.01ZM230.5,52.54c1.03,0,1.94-.21,2.72-.63s1.43-.99,1.96-1.73c.53-.73.92-1.6,1.17-2.61s.38-2.1.38-3.27-.13-2.27-.38-3.27-.64-1.88-1.17-2.63c-.53-.74-1.18-1.32-1.96-1.74-.78-.42-1.69-.63-2.72-.63s-1.94.21-2.72.63c-.78.42-1.43,1-1.96,1.74-.53.74-.92,1.62-1.19,2.63-.26,1.01-.4,2.1-.4,3.27s.13,2.27.4,3.27c.26,1.01.66,1.88,1.19,2.61s1.18,1.31,1.96,1.73c.78.42,1.68.63,2.72.63Z"/>
      <path class="cls-2" d="M255.08,57.72c-1.7,0-3.26-.19-4.66-.56-1.4-.37-2.6-.92-3.6-1.65s-1.78-1.64-2.34-2.73c-.56-1.09-.86-2.34-.88-3.76h6.4c.14,1.3.64,2.23,1.47,2.81.84.58,2.03.86,3.56.86.53,0,1.04-.05,1.53-.14.49-.1.93-.25,1.31-.47s.7-.5.94-.85.36-.76.36-1.24-.13-.92-.38-1.26c-.25-.34-.62-.62-1.1-.86s-1.07-.45-1.76-.63c-.7-.18-1.49-.38-2.37-.59-1.13-.26-2.24-.56-3.33-.9-1.09-.34-2.07-.79-2.93-1.37s-1.57-1.31-2.1-2.19c-.54-.89-.81-2-.81-3.35s.26-2.55.79-3.54,1.25-1.82,2.16-2.46c.91-.65,1.99-1.13,3.24-1.44,1.25-.31,2.59-.47,4.03-.47s2.69.16,3.9.49c1.21.32,2.27.81,3.17,1.46.9.65,1.62,1.47,2.16,2.46.54,1,.85,2.16.92,3.51h-6.22c-.12-1.01-.54-1.77-1.26-2.3s-1.68-.79-2.88-.79c-1.13,0-2.03.22-2.7.67-.67.44-1.01,1.03-1.01,1.74,0,.46.13.83.38,1.13.25.3.62.56,1.1.77.48.22,1.08.41,1.82.59.73.18,1.58.38,2.54.59,1.2.29,2.34.61,3.44.97,1.09.36,2.06.84,2.9,1.44.84.6,1.51,1.36,2.01,2.27.5.91.76,2.05.76,3.42s-.27,2.54-.81,3.58-1.28,1.92-2.23,2.63-2.06,1.25-3.35,1.62c-1.28.37-2.67.56-4.16.56v-.02Z"/>
      <path class="cls-2" d="M279.37,57.72c-1.94,0-3.7-.34-5.27-1.01-1.57-.67-2.9-1.61-3.99-2.81s-1.94-2.62-2.54-4.26-.9-3.42-.9-5.34.3-3.7.9-5.34,1.44-3.06,2.54-4.26c1.09-1.2,2.42-2.13,3.99-2.81,1.57-.67,3.33-1.01,5.27-1.01s3.7.34,5.27,1.01c1.57.67,2.91,1.61,4.01,2.81s1.95,2.62,2.55,4.26c.6,1.64.9,3.42.9,5.34s-.3,3.7-.9,5.34-1.45,3.06-2.55,4.26c-1.1,1.2-2.44,2.13-4.01,2.81-1.57.67-3.33,1.01-5.27,1.01ZM279.4,52.54c1.03,0,1.94-.21,2.72-.63s1.43-.99,1.96-1.73c.53-.73.92-1.6,1.17-2.61s.38-2.1.38-3.27-.13-2.27-.38-3.27-.64-1.88-1.17-2.63c-.53-.74-1.18-1.32-1.96-1.74-.78-.42-1.69-.63-2.72-.63s-1.94.21-2.72.63c-.78.42-1.43,1-1.96,1.74-.53.74-.92,1.62-1.19,2.63-.26,1.01-.4,2.1-.4,3.27s.13,2.27.4,3.27c.26,1.01.66,1.88,1.19,2.61s1.18,1.31,1.96,1.73c.78.42,1.68.63,2.72.63Z"/>
      <path class="cls-2" d="M295.44,31.39h17.43v5.36h-12.77v5.22h10.68v4.72c0,.24-.19.43-.43.43h-10.26v10h-6.37v-24.01c0-.95.77-1.71,1.71-1.71h.01Z"/>
      <path class="cls-2" d="M322.08,36.78h-7.48v-5.4h21.41v5.4h-7.55v20.33h-6.37v-20.33h-.01Z"/>
      <path class="cls-2" d="M133.35,62.22h17.43v5.36h-12.77v5.22h10.68v4.72c0,.24-.19.43-.43.43h-10.26v10h-6.37v-24.01c0-.95.77-1.71,1.71-1.71h0Z"/>
      <path class="cls-2" d="M157.63,62.22h6.55l9.28,25.72h-6.69l-1.51-4.64h-8.99l-1.47,4.64h-6.4l9.25-25.72h-.02ZM163.79,78.74l-1.94-6.22c-.12-.34-.24-.71-.36-1.12s-.23-.8-.32-1.19c-.12-.43-.23-.88-.32-1.33h-.07c-.12.46-.24.9-.36,1.33-.12.38-.23.78-.34,1.19s-.22.78-.34,1.12l-1.98,6.22h6.04,0Z"/>
      <path class="cls-2" d="M174.57,62.22h12.41c1.34,0,2.51.16,3.49.47.98.31,1.82.74,2.52,1.3,1.49,1.22,2.23,2.87,2.23,4.93,0,1.3-.31,2.35-.94,3.17-.62.82-1.51,1.44-2.66,1.87v.11c1.41.43,2.54,1.21,3.36,2.32.83,1.12,1.24,2.44,1.24,3.98,0,1.3-.23,2.42-.68,3.36-.46.95-1.1,1.74-1.94,2.39-1.56,1.22-3.67,1.83-6.33,1.83h-12.7v-25.72h0ZM186.05,72.41c.91,0,1.65-.22,2.23-.67.58-.44.86-1.08.86-1.92s-.28-1.44-.83-1.89c-.55-.44-1.3-.67-2.23-.67h-5.22v5.14h5.19ZM186.55,82.84c1.06,0,1.88-.28,2.48-.83.6-.55.9-1.28.9-2.19,0-1.03-.33-1.8-.99-2.32s-1.48-.77-2.46-.77h-5.61v6.12h5.68Z"/>
      <path class="cls-2" d="M197.78,62.65c0-.24.19-.43.43-.43h11.88c1.27,0,2.46.16,3.56.49,1.1.32,2.06.8,2.86,1.42.8.62,1.43,1.4,1.89,2.32s.68,1.98.68,3.18c0,1.51-.37,2.79-1.1,3.85-.73,1.06-1.85,1.85-3.36,2.37v.11c1.13.38,1.98.94,2.57,1.67.59.73.98,1.74,1.17,3.04.14.84.23,1.66.27,2.46.04.8.08,1.52.13,2.16.05.64.12,1.16.22,1.58s.25.67.47.74v.32h-6.19c-.17-.1-.29-.34-.38-.74-.08-.4-.16-.88-.22-1.44-.06-.56-.11-1.17-.16-1.83s-.12-1.31-.22-1.96c-.17-1.2-.58-2.11-1.24-2.73s-1.67-.94-3.04-.94h-3.85v9.64h-6.37v-25.29h0ZM208.93,73.59c1.27,0,2.22-.28,2.86-.83s.95-1.32.95-2.3-.31-1.7-.92-2.3c-.61-.6-1.53-.9-2.75-.9h-4.93v6.33h4.79Z"/>
      <path class="cls-2" d="M241.75,88.52c-1.89,0-3.62-.34-5.18-1.01-1.56-.67-2.9-1.6-4.01-2.79s-1.98-2.6-2.59-4.23c-.61-1.63-.92-3.41-.92-5.32s.3-3.7.9-5.34c.6-1.64,1.45-3.06,2.55-4.26,1.1-1.2,2.43-2.14,3.99-2.82s3.3-1.03,5.22-1.03c1.51,0,2.88.2,4.12.61,1.23.41,2.31.96,3.22,1.65,1.13.84,2.01,1.87,2.64,3.09.64,1.22,1.04,2.55,1.21,3.99h-6.37c-.17-1.15-.68-2.12-1.53-2.9s-1.96-1.17-3.33-1.17c-1.06,0-1.97.2-2.73.61-.77.41-1.4.98-1.91,1.71-.5.73-.88,1.6-1.13,2.59-.25,1-.38,2.08-.38,3.26s.14,2.26.43,3.26c.29,1,.7,1.85,1.24,2.57.54.72,1.19,1.28,1.94,1.69.76.41,1.61.61,2.57.61,1.44,0,2.6-.4,3.47-1.21.88-.8,1.39-1.83,1.53-3.08h6.37c-.1,1.3-.41,2.51-.95,3.63-.54,1.13-1.25,2.11-2.14,2.95-1.01.96-2.18,1.69-3.51,2.18-1.33.49-2.91.74-4.73.74v.02Z"/>
      <path class="cls-2" d="M136.5,105.35c-.9,0-1.73-.16-2.49-.49-.76-.33-1.42-.79-1.96-1.39-.55-.59-.97-1.3-1.28-2.1-.31-.81-.46-1.7-.46-2.67s.14-1.83.43-2.65.7-1.53,1.23-2.14,1.18-1.08,1.94-1.42c.76-.34,1.62-.51,2.56-.51.79,0,1.5.11,2.12.33s1.16.53,1.61.92.81.85,1.07,1.38c.26.53.43,1.1.5,1.71h-2.59c-.12-.65-.41-1.17-.88-1.56s-1.08-.58-1.83-.58c-.6,0-1.12.12-1.56.35-.44.23-.8.55-1.09.96-.29.41-.5.89-.65,1.44-.14.55-.22,1.15-.22,1.78s.08,1.27.24,1.82.4,1.03.7,1.43c.31.4.68.71,1.12.94.44.22.93.33,1.47.33.77,0,1.4-.21,1.9-.62.5-.41.79-.96.87-1.65h2.55c-.04.58-.17,1.12-.41,1.65-.24.52-.58.99-1.01,1.39-.44.42-.98.75-1.61,1s-1.39.37-2.29.37l.02-.02Z"/>
      <path class="cls-2" d="M147.61,105.35c-.72,0-1.37-.13-1.96-.38-.59-.25-1.09-.6-1.52-1.03-.43-.44-.76-.95-.99-1.55-.23-.59-.35-1.23-.35-1.92s.12-1.32.35-1.92c.23-.59.56-1.11.99-1.55.43-.44.93-.78,1.52-1.03.59-.25,1.24-.38,1.96-.38s1.37.13,1.96.38c.59.25,1.09.6,1.52,1.03.43.44.76.95.99,1.55.23.59.35,1.23.35,1.92s-.12,1.32-.35,1.92c-.23.59-.56,1.11-.99,1.55-.43.44-.93.78-1.52,1.03-.59.25-1.24.38-1.96.38ZM147.61,103.48c.76,0,1.33-.28,1.74-.83.4-.55.6-1.28.6-2.18s-.2-1.63-.6-2.19c-.4-.56-.98-.84-1.74-.84s-1.33.28-1.74.84c-.4.56-.6,1.29-.6,2.19s.2,1.63.6,2.18c.4.55.98.83,1.74.83Z"/>
      <path class="cls-2" d="M177.48,96.47c-.53-.58-1.28-.87-2.25-.87-.59,0-1.12.14-1.59.43s-.87.68-1.18,1.19h-.03c-.12-.28-.27-.53-.47-.75-.21-.24-.47-.41-.76-.55-.05-.03-.11-.06-.16-.08-.03-.01-.06-.02-.09-.03-.33-.13-.69-.2-1.08-.2h-.16c-.59,0-1.12.14-1.59.43s-.87.68-1.18,1.19h-.04c-.12-.28-.27-.53-.46-.75-.19-.2-.41-.36-.65-.49-.09-.06-.19-.11-.29-.15-.02,0-.04-.01-.05-.02-.33-.14-.7-.21-1.1-.21h-.16c-.59,0-1.12.14-1.59.43s-.87.68-1.18,1.19h-.04c-.23-.49-.56-.88-1.01-1.18-.44-.29-.96-.44-1.55-.44-.65,0-1.19.14-1.64.43-.44.29-.79.64-1.04,1.06h-.05c0-.69-.56-1.24-1.24-1.24h-1.12v9.23h2.23c.12,0,.21-.1.21-.21v-5.15c0-.61.15-1.1.45-1.47s.7-.55,1.21-.55c.46,0,.81.13,1.05.4.25.26.37.66.37,1.19v5.79h2.23c.12,0,.21-.1.21-.21v-5.15c0-.61.15-1.1.44-1.47.29-.37.7-.55,1.21-.55.45,0,.8.13,1.05.39h0c.25.26.37.66.37,1.19v5.79h2.23c.12,0,.21-.1.21-.21v-5.15c0-.61.15-1.09.44-1.46h0c.23-.28.52-.45.87-.52.11-.02.22-.03.34-.03.45,0,.8.13,1.05.4.25.26.37.66.37,1.19v5.79h2.24c.12,0,.21-.1.21-.21v-5.25c.02-.56.16-1.01.43-1.36.29-.37.7-.55,1.21-.55.46,0,.81.13,1.05.4.25.26.37.66.37,1.19v5.79h2.45v-6.21c0-1.02-.26-1.82-.79-2.4l.04-.02Z"/>
      <path class="cls-2" d="M185.7,95.85v5.32c0,.61-.16,1.11-.49,1.5-.33.39-.78.58-1.36.58-.53,0-.91-.14-1.16-.43s-.37-.7-.37-1.24v-5.74h-2.43v6.15c0,1.02.28,1.83.83,2.43s1.34.9,2.37.9c.65,0,1.17-.12,1.57-.35.4-.23.76-.56,1.07-.98h.05c.15.63.72,1.08,1.37,1.08h.98v-9.23h-2.45.02Z"/>
      <path class="cls-2" d="M192.31,97.11h.05c.31-.5.69-.88,1.12-1.13.44-.25.97-.38,1.61-.38.48,0,.91.09,1.3.26.39.17.72.41,1,.72s.49.67.65,1.09c.16.42.23.88.23,1.39v6.03h-2.45v-5.67c0-.5-.14-.91-.41-1.22-.28-.31-.67-.47-1.19-.47s-.99.2-1.34.58c-.35.39-.53.9-.53,1.54v5.23h-2.45v-9.23h1.13c.7,0,1.26.56,1.26,1.26h.02Z"/>
      <path class="cls-2" d="M199.97,95.85h2.45v9.23h-2.45v-9.23Z"/>
      <path class="cls-2" d="M203.64,95.85h.64c.35,0,.64-.28.64-.64v-2.24h2.39v2.88h1.58v1.62h-1.58v4.89c0,.35.08.59.25.72s.39.2.67.2h.47c.08,0,.17,0,.25-.02v1.8c-.12,0-.25.02-.4.02-.13,0-.29.02-.49.02h-.65c-.3,0-.6-.03-.89-.1s-.56-.18-.8-.35c-.24-.17-.43-.4-.58-.68-.15-.29-.23-.65-.23-1.08v-5.41h-1.28v-1.62h0Z"/>
      <path class="cls-2" d="M210.71,106.18h.86c.49,0,.84-.11,1.05-.34s.31-.53.31-.92c0-.12,0-.25-.04-.4-.02-.15-.06-.32-.12-.51-.05-.19-.13-.42-.22-.67-.09-.26-.2-.56-.33-.91l-2.48-6.57h2.57l1.37,4.16c.07.22.14.44.21.67.07.23.13.45.19.66.06.23.13.46.2.68h.04c.05-.23.1-.46.16-.68.05-.2.1-.42.17-.66s.14-.46.21-.67l1.3-4.16h2.46l-3.22,9.46c-.18.52-.36.95-.55,1.3s-.4.64-.65.86-.53.38-.86.48c-.33.1-.73.14-1.2.14h-1.44v-1.92h0Z"/>
      <path class="cls-2" d="M228.66,105.35c-.9,0-1.73-.16-2.49-.49-.76-.33-1.42-.79-1.96-1.39-.55-.59-.97-1.3-1.28-2.1-.31-.81-.46-1.7-.46-2.67s.14-1.83.43-2.65.7-1.53,1.23-2.14,1.18-1.08,1.94-1.42c.76-.34,1.62-.51,2.56-.51.79,0,1.5.11,2.12.33s1.16.53,1.61.92c.45.39.81.85,1.07,1.38s.43,1.1.5,1.71h-2.59c-.12-.65-.41-1.17-.88-1.56s-1.08-.58-1.83-.58c-.6,0-1.12.12-1.56.35-.44.23-.8.55-1.09.96-.29.41-.5.89-.65,1.44-.14.55-.22,1.15-.22,1.78s.08,1.27.24,1.82.4,1.03.7,1.43c.31.4.68.71,1.12.94.44.22.93.33,1.47.33.77,0,1.4-.21,1.9-.62.5-.41.79-.96.87-1.65h2.55c-.04.58-.17,1.12-.41,1.65-.24.52-.58.99-1.01,1.39-.44.42-.98.75-1.61,1-.63.25-1.39.37-2.29.37l.02-.02Z"/>
      <path class="cls-2" d="M239.78,105.35c-.72,0-1.37-.13-1.96-.38s-1.09-.6-1.52-1.03c-.43-.44-.76-.95-.99-1.55-.23-.59-.35-1.23-.35-1.92s.12-1.32.35-1.92c.23-.59.56-1.11.99-1.55s.93-.78,1.52-1.03,1.24-.38,1.96-.38,1.37.13,1.96.38,1.09.6,1.52,1.03c.43.44.76.95.99,1.55.23.59.35,1.23.35,1.92s-.12,1.32-.35,1.92c-.23.59-.56,1.11-.99,1.55s-.93.78-1.52,1.03-1.24.38-1.96.38ZM239.78,103.48c.76,0,1.33-.28,1.74-.83.4-.55.6-1.28.6-2.18s-.2-1.63-.6-2.19c-.4-.56-.98-.84-1.74-.84s-1.33.28-1.74.84c-.4.56-.6,1.29-.6,2.19s.2,1.63.6,2.18.98.83,1.74.83Z"/>
      <path class="cls-2" d="M248.3,97.11h.05c.31-.5.69-.88,1.12-1.13.44-.25.97-.38,1.61-.38.48,0,.91.09,1.3.26.39.17.72.41,1,.72s.49.67.65,1.09.23.88.23,1.39v6.03h-2.45v-5.67c0-.5-.14-.91-.41-1.22-.28-.31-.67-.47-1.19-.47s-.99.2-1.34.58c-.35.39-.53.9-.53,1.54v5.23h-2.45v-9.23h1.13c.7,0,1.26.56,1.26,1.26h.02Z"/>
      <path class="cls-2" d="M266.05,105.35c-.77,0-1.45-.13-2.04-.38s-1.09-.6-1.5-1.03c-.41-.44-.72-.96-.93-1.56-.21-.6-.31-1.24-.31-1.92s.11-1.32.33-1.92c.22-.59.53-1.11.94-1.54.4-.43.88-.77,1.44-1.03.56-.25,1.17-.38,1.84-.38.74,0,1.4.13,1.96.4.56.27,1.04.65,1.42,1.14s.67,1.08.87,1.75.3,1.43.3,2.26h-6.69c.1.72.34,1.28.73,1.69s.93.61,1.63.61c.48,0,.86-.1,1.15-.31.29-.2.5-.48.63-.83h2.41c-.08.41-.24.79-.46,1.16-.22.37-.51.69-.86.96-.35.28-.77.49-1.25.66-.48.16-1.01.24-1.6.24v.03ZM265.86,97.49c-.65,0-1.14.18-1.47.53-.34.35-.56.84-.67,1.45h4.1c-.04-.59-.23-1.06-.58-1.43-.35-.37-.81-.55-1.38-.55Z"/>
      <path class="cls-2" d="M274.04,97.33h.05c.28-.53.59-.92.94-1.19.35-.26.79-.4,1.33-.4.25,0,.44.02.58.07v2.14h-.05c-.8-.08-1.46.09-1.98.52-.52.43-.77,1.13-.77,2.1v4.5h-2.45v-9.23h.88c.81,0,1.47.66,1.47,1.47h0v.02Z"/>
      <path class="cls-2" d="M282.24,105.35c-.77,0-1.45-.13-2.04-.38s-1.09-.6-1.5-1.03c-.41-.44-.72-.96-.93-1.56-.21-.6-.31-1.24-.31-1.92s.11-1.32.33-1.92c.22-.59.53-1.11.94-1.54.4-.43.88-.77,1.44-1.03.56-.25,1.17-.38,1.84-.38.74,0,1.4.13,1.96.4.56.27,1.04.65,1.42,1.14s.67,1.08.87,1.75.3,1.43.3,2.26h-6.69c.1.72.34,1.28.73,1.69s.93.61,1.63.61c.48,0,.86-.1,1.15-.31.29-.2.5-.48.63-.83h2.41c-.08.41-.24.79-.46,1.16-.22.37-.51.69-.86.96-.35.28-.77.49-1.25.66-.48.16-1.01.24-1.6.24v.03ZM282.05,97.49c-.65,0-1.14.18-1.47.53-.34.35-.56.84-.67,1.45h4.1c-.04-.59-.23-1.06-.58-1.43-.35-.37-.81-.55-1.38-.55Z"/>
      <path class="cls-2" d="M290.27,97.11h.05c.31-.5.69-.88,1.12-1.13.44-.25.97-.38,1.61-.38.48,0,.91.09,1.3.26.39.17.72.41,1,.72s.49.67.65,1.09.23.88.23,1.39v6.03h-2.45v-5.67c0-.5-.14-.91-.41-1.22-.28-.31-.67-.47-1.19-.47s-.99.2-1.34.58c-.35.39-.53.9-.53,1.54v5.23h-2.45v-9.23h1.13c.7,0,1.26.56,1.26,1.26h.02Z"/>
      <path class="cls-2" d="M302.21,105.35c-.73,0-1.39-.13-1.97-.38s-1.08-.6-1.48-1.03c-.41-.44-.72-.95-.94-1.55-.22-.59-.33-1.23-.33-1.92s.11-1.32.32-1.92c.22-.59.52-1.11.93-1.55.4-.44.88-.78,1.45-1.03.56-.25,1.2-.38,1.91-.38.6,0,1.14.08,1.62.25.48.17.9.4,1.25.69s.64.65.86,1.06c.22.41.37.87.46,1.38h-2.39c-.08-.41-.27-.75-.57-1.02-.29-.27-.67-.4-1.12-.4-.74,0-1.3.26-1.67.78-.37.52-.56,1.23-.56,2.13s.18,1.58.53,2.11c.35.53.91.8,1.66.8.5,0,.92-.13,1.24-.39.32-.26.53-.65.61-1.18h2.36c-.04.49-.16.95-.37,1.38s-.49.8-.85,1.12c-.35.32-.78.57-1.28.76-.5.19-1.05.28-1.66.28h0Z"/>
      <path class="cls-2" d="M311.94,105.35c-.77,0-1.45-.13-2.04-.38s-1.09-.6-1.5-1.03c-.41-.44-.72-.96-.93-1.56-.21-.6-.31-1.24-.31-1.92s.11-1.32.33-1.92c.22-.59.53-1.11.94-1.54.4-.43.88-.77,1.44-1.03.56-.25,1.17-.38,1.84-.38.74,0,1.4.13,1.96.4.56.27,1.04.65,1.42,1.14s.67,1.08.87,1.75c.2.68.3,1.43.3,2.26h-6.69c.1.72.34,1.28.73,1.69s.93.61,1.63.61c.48,0,.86-.1,1.15-.31.29-.2.5-.48.63-.83h2.41c-.08.41-.24.79-.46,1.16-.22.37-.51.69-.86.96-.35.28-.77.49-1.25.66-.48.16-1.01.24-1.6.24v.03ZM311.74,97.49c-.65,0-1.14.18-1.47.53-.34.35-.56.84-.67,1.45h4.1c-.04-.59-.23-1.06-.58-1.43-.35-.37-.81-.55-1.38-.55Z"/>
      <path class="cls-2" d="M221.36,71.39h5.94v16.56h-6.37v-16.13c0-.24.19-.43.43-.43Z"/>
      <rect class="cls-2" x="199.97" y="91.36" width="2.45" height="2.19"/>
      <path class="cls-2" d="M255.33,95.85h.63s.26,0,.44-.18.19-.41.19-.45v-.2c0-.56.1-1.04.31-1.42.2-.38.49-.69.85-.91.37-.22.8-.37,1.3-.44s1.05-.08,1.64-.02v1.89c-.58-.02-1,.02-1.26.14s-.4.42-.4.9v.68h1.65v1.69h-1.65v7.54h-2.45v-7.54h-1.26v-1.69h.01Z"/>
    </g>
    <g>
      <g>
        <path class="cls-1" d="M16.16,47.59c.77-4.37,2.29-8.55,4.49-12.38l-6.63-3.83c-2.65,4.6-4.48,9.62-5.4,14.87l7.54,1.33h0Z"/>
        <path class="cls-1" d="M.8,45.06c-.52,3.02-.8,6.12-.8,9.29s.28,6.27.8,9.29l7.62-1.34c-.45-2.6-.67-5.25-.67-7.94s.23-5.34.67-7.94l-7.62-1.34v-.02Z"/>
        <path class="cls-1" d="M21.29,21.63c.93-.93,1.89-1.81,2.88-2.65l-4.97-5.93c-4.75,4.01-8.8,8.82-11.94,14.23l6.7,3.87c2-3.44,4.45-6.64,7.34-9.52h-.01Z"/>
        <path class="cls-1" d="M8.62,62.43c.93,5.26,2.75,10.28,5.4,14.87l6.63-3.83c-2.2-3.83-3.72-8-4.49-12.38l-7.54,1.33h0Z"/>
        <path class="cls-1" d="M26.95,27.29c-2.38,2.38-4.41,5.03-6.06,7.86l6.71,3.88c1.76-3.03,4.03-5.73,6.69-7.98l-4.98-5.93c-.81.69-1.6,1.41-2.37,2.17h.01Z"/>
        <path class="cls-1" d="M24.42,19l4.92,5.86c3.42-2.87,7.27-5.1,11.39-6.61l-2.62-7.2c-4.96,1.82-9.58,4.49-13.69,7.95Z"/>
        <path class="cls-1" d="M81.94,42.04c1.36,3.08,2.22,6.43,2.49,9.94h23.52C106.81,25.5,86.6,3.97,60.71.76c-.09-.01-.18-.02-.27-.03-.64-.08-1.29-.14-1.94-.2-.25-.02-.5-.04-.75-.06-.52-.04-1.05-.07-1.57-.09-.42-.02-.84-.02-1.26-.03-.3,0-.6-.02-.91-.02h-.31c-.48,0-.96.02-1.44.03-.3,0-.6.01-.9.03-.48.02-.96.06-1.44.1-.31.02-.61.04-.92.07-.35.03-.7.08-1.05.12-.44.05-.88.09-1.32.15-.07.01-.15.02-.22.03-3.75.53-7.38,1.44-10.84,2.69l2.64,7.27c2.47-.89,5.02-1.58,7.62-2.04.09-.02.19-.03.28-.04,2.52-.43,5.1-.66,7.7-.67h.18v8h-.2c-.53,0-1.06.02-1.59.04h-.03c-1.08.05-2.15.14-3.22.28-.03,0-.06,0-.09,0-.34.05-.68.1-1.02.16-.22.04-.44.07-.66.1h-.02c-2.13.38-4.21.94-6.23,1.67l2.65,7.29c1.6-.58,3.26-1.03,4.97-1.34h0c1.99-.35,4.05-.51,6.13-.46.16,0,.32,0,.49,0,.36,0,.71.03,1.07.06.07,0,.14,0,.21.02.84.07,1.68.17,2.53.31h0c2.58.41,5.04,1.17,7.36,2.2,2.02-2.94,5.41-4.88,9.25-4.88,6.19,0,11.22,5.03,11.22,11.22,0,3.84-1.94,7.23-4.89,9.26l.02.02Z"/>
        <path class="cls-1" d="M16.3,47.79c-.37,2.14-.56,4.33-.56,6.55s.19,4.41.56,6.55l7.63-1.35c-.29-1.69-.44-3.43-.44-5.21s.15-3.51.44-5.21l-7.63-1.35v.02Z"/>
      </g>
      <path class="cls-1" d="M132.07.55h17.06v2.12h-15.07v9.25h13.81v1.66c0,.24-.19.43-.43.43h-13.39v7.64c0,1.32,1.07,2.4,2.4,2.4h13.07v2.23h-13.6c-2.37,0-4.28-1.92-4.28-4.28V.99c0-.24.19-.43.43-.43h0Z"/>
      <path class="cls-1" d="M161.36,26.67c-1.42,0-2.69-.17-3.83-.5-1.14-.34-2.12-.86-2.95-1.56-.83-.71-1.46-1.59-1.91-2.66-.44-1.07-.67-2.34-.67-3.83V.56h2.41v17.34c0,2.37.61,4.08,1.83,5.13,1.22,1.04,2.96,1.56,5.22,1.56,1.08,0,2.05-.13,2.91-.38s1.6-.65,2.21-1.19c.61-.54,1.08-1.23,1.4-2.07.32-.84.49-1.86.49-3.06V.55h2.41v17.56c0,1.49-.23,2.77-.7,3.85-.47,1.08-1.13,1.97-1.98,2.66-.85.7-1.86,1.21-3.02,1.55s-2.44.5-3.83.5h0Z"/>
      <path class="cls-1" d="M174.03.98c0-.24.19-.43.43-.43h11.05c2.33,0,4.12.62,5.4,1.85,1.27,1.24,1.91,2.93,1.91,5.09,0,1.58-.35,2.89-1.04,3.92-.7,1.03-1.79,1.79-3.27,2.27v.11c.67.22,1.23.51,1.67.88.44.37.81.83,1.1,1.39.29.55.5,1.2.65,1.94.14.74.24,1.62.29,2.63.05,1.03.11,1.88.18,2.55.07.67.16,1.21.27,1.62s.22.71.32.92c.11.2.22.34.34.41v.14h-2.59c-.14-.1-.26-.25-.36-.45s-.18-.52-.25-.94-.13-.98-.18-1.67c-.05-.7-.1-1.59-.14-2.7-.05-1.1-.19-2.03-.41-2.77-.23-.74-.56-1.33-1.01-1.76-.44-.43-1-.74-1.67-.92-.67-.18-1.47-.27-2.41-.27h-7.84v11.48h-2.41V.98h-.03ZM184.68,12.75c1.87,0,3.28-.44,4.23-1.31.95-.88,1.42-2.12,1.42-3.72s-.4-2.85-1.21-3.72c-.8-.88-2.18-1.31-4.12-1.31h-8.56v10.07h8.24Z"/>
      <path class="cls-1" d="M206.27,26.78c-1.82,0-3.47-.34-4.93-1.01-1.46-.67-2.72-1.61-3.76-2.81s-1.85-2.61-2.41-4.25c-.56-1.63-.85-3.41-.85-5.32s.28-3.69.85-5.32c.56-1.63,1.37-3.05,2.41-4.25,1.04-1.2,2.3-2.13,3.76-2.81,1.46-.67,3.11-1.01,4.93-1.01s3.48.34,4.96,1.01c1.49.67,2.75,1.61,3.8,2.81,1.04,1.2,1.85,2.61,2.41,4.25.56,1.63.85,3.41.85,5.32s-.28,3.69-.85,5.32c-.56,1.63-1.37,3.05-2.41,4.25-1.04,1.2-2.31,2.13-3.8,2.81-1.49.67-3.14,1.01-4.96,1.01ZM206.27,24.62c1.53,0,2.9-.29,4.08-.88,1.19-.59,2.18-1.39,2.99-2.39.8-1.01,1.41-2.19,1.82-3.56.41-1.37.61-2.83.61-4.39s-.2-3.02-.61-4.39-1.01-2.55-1.82-3.56c-.8-1.01-1.8-1.8-2.99-2.39s-2.55-.88-4.08-.88-2.89.29-4.07.88c-1.18.59-2.16,1.39-2.95,2.39-.79,1.01-1.39,2.19-1.8,3.56s-.61,2.83-.61,4.39.2,3.02.61,4.39,1.01,2.55,1.8,3.56c.79,1.01,1.77,1.8,2.95,2.39,1.17.59,2.53.88,4.07.88Z"/>
      <path class="cls-1" d="M221.02.98c0-.24.19-.43.43-.43h9.68c1.41,0,2.6.19,3.56.58.96.38,1.79.94,2.48,1.65.58.62,1.02,1.34,1.33,2.14s.47,1.74.47,2.82c0,2.4-.68,4.22-2.05,5.47s-3.41,1.87-6.12,1.87h-7.38v11.19h-2.41V.98h.01ZM230.63,13.04c2.09,0,3.59-.46,4.51-1.39.92-.92,1.39-2.2,1.39-3.83s-.48-2.93-1.44-3.81c-.96-.89-2.37-1.33-4.25-1.33h-7.41v10.36h7.2,0Z"/>
      <path class="cls-1" d="M241.68.55h17.06v2.12h-15.07v9.25h13.81v1.66c0,.24-.19.43-.43.43h-13.39v7.64c0,1.32,1.07,2.4,2.4,2.4h13.07v2.23h-13.6c-2.37,0-4.28-1.92-4.28-4.28V.99c0-.24.19-.43.43-.43h0Z"/>
      <path class="cls-1" d="M270.64.55h2.73l9.79,25.72h-2.59l-2.99-8.09h-11.19l-3.02,8.09h-2.45l9.71-25.72h0ZM276.86,16.2l-3.53-9.61c-.14-.36-.29-.76-.45-1.19s-.29-.84-.41-1.22c-.14-.43-.29-.88-.43-1.33h-.07l-.43,1.3c-.12.38-.25.79-.4,1.22-.14.43-.29.84-.43,1.22l-3.6,9.61h9.75Z"/>
      <path class="cls-1" d="M284.89.55h2.16c.29,0,.56.15.72.39l11.58,17.67c.34.48.65.97.95,1.47.3.5.57.96.81,1.37.26.48.53.95.79,1.4h.07V.55h2.3v25.72h-2.06c-.29,0-.56-.14-.71-.38l-11.55-17.46c-.31-.46-.62-.94-.94-1.44-.31-.5-.6-.97-.86-1.4-.31-.5-.61-1.01-.9-1.51h-.07v22.2h-2.3V.56h0Z"/>
      <path class="cls-1" d="M160.93,31.39h.37c3.31,0,6,2.68,6,6v.37h-6.37v-6.37Z"/>
      <path class="cls-1" d="M220.94,62.22h.37c3.31,0,6,2.68,6,6v.37h-6.37v-6.37Z"/>
    </g>
  </g>
</svg>